# Blender v2.76 (sub 0) OBJ File: ''
# www.blender.org
mtllib cone.mtl
o Cone_Cone.002
v 0.000000 -1.000000 1.500000
v 0.707107 -0.707107 1.500000
v 1.000000 0.000000 1.500000
v 0.707107 0.707107 1.500000
v -0.000000 1.000000 1.500000
v 0.000000 -0.000000 -1.500000
v -0.707107 0.707107 1.500000
v -1.000000 0.000000 1.500000
v -0.707107 -0.707107 1.500000
vn -0.883000 -0.365700 -0.294300
vn 0.365700 -0.883000 -0.294300
vn -0.883000 0.365700 -0.294300
vn -0.365700 0.883000 -0.294300
vn 0.365700 0.883000 -0.294300
vn 0.883000 0.365700 -0.294300
vn -0.365700 -0.883000 -0.294300
vn 0.883000 -0.365700 -0.294300
vn 0.000000 0.000000 1.000000
usemtl None
s off
f 8//1 6//1 9//1
f 1//2 6//2 2//2
f 7//3 6//3 8//3
f 5//4 6//4 7//4
f 4//5 6//5 5//5
f 3//6 6//6 4//6
f 9//7 6//7 1//7
f 2//8 6//8 3//8
f 1//9 2//9 3//9 4//9 5//9 7//9 8//9 9//9
